<svg width="20" height="20" viewBox="0 0 20 20" fill="none" xmlns="http://www.w3.org/2000/svg">
<g id="chevron_right_FILL0_wght400_GRAD0_opsz40">
<path id="Vector" d="M9.98572 9.13897L6.44405 12.6806C6.30988 12.8148 6.14787 12.8796 5.95801 12.875C5.76815 12.8704 5.60613 12.801 5.47197 12.6667C5.33766 12.5324 5.27051 12.368 5.27051 12.1736C5.27051 11.9791 5.33766 11.8148 5.47197 11.6806L9.49967 7.65273C9.5737 7.5787 9.65009 7.52661 9.72884 7.49648C9.80759 7.46648 9.89322 7.45147 9.98572 7.45147C10.0784 7.45147 10.164 7.46648 10.2428 7.49648C10.3214 7.52661 10.3978 7.5787 10.472 7.65273L14.5136 11.6944C14.6478 11.8287 14.7126 11.9908 14.708 12.1806C14.7034 12.3704 14.634 12.5324 14.4997 12.6667C14.3654 12.801 14.201 12.8681 14.0065 12.8681C13.8121 12.8681 13.6478 12.801 13.5136 12.6667L9.98572 9.13897Z" fill="#999999"/>
</g>
</svg>
