<svg width="20" height="20" viewBox="0 0 20 20" fill="none" xmlns="http://www.w3.org/2000/svg">
<g id="restart_alt_FILL0_wght400_GRAD0_opsz24 1">
<path id="Vector" d="M8.18717 17.25C6.75662 16.8472 5.58995 16.059 4.68717 14.8854C3.7844 13.7118 3.33301 12.3611 3.33301 10.8333C3.33301 10.0417 3.46495 9.28818 3.72884 8.5729C3.99273 7.85762 4.36773 7.20137 4.85384 6.60415C5.00662 6.43748 5.19412 6.35068 5.41634 6.34373C5.63856 6.33679 5.83995 6.4236 6.02051 6.60415C6.17329 6.75693 6.25315 6.94443 6.26009 7.16665C6.26704 7.38887 6.19412 7.59721 6.04134 7.79165C5.70801 8.22221 5.45106 8.69443 5.27051 9.20832C5.08995 9.72221 4.99967 10.2639 4.99967 10.8333C4.99967 11.9583 5.32954 12.9618 5.98926 13.8437C6.64898 14.7257 7.49967 15.3264 8.54134 15.6458C8.7219 15.7014 8.8712 15.8055 8.98926 15.9583C9.10731 16.1111 9.16634 16.2778 9.16634 16.4583C9.16634 16.7361 9.06912 16.9548 8.87467 17.1146C8.68023 17.2743 8.45106 17.3194 8.18717 17.25ZM11.8122 17.25C11.5483 17.3194 11.3191 17.2708 11.1247 17.1042C10.9302 16.9375 10.833 16.7153 10.833 16.4375C10.833 16.2708 10.892 16.1111 11.0101 15.9583C11.1281 15.8055 11.2775 15.7014 11.458 15.6458C12.4997 15.3125 13.3504 14.7083 14.0101 13.8333C14.6698 12.9583 14.9997 11.9583 14.9997 10.8333C14.9997 9.44443 14.5136 8.26387 13.5413 7.29165C12.5691 6.31943 11.3886 5.83332 9.99967 5.83332H9.93717L10.2705 6.16665C10.4233 6.31943 10.4997 6.51387 10.4997 6.74998C10.4997 6.9861 10.4233 7.18054 10.2705 7.33332C10.1177 7.4861 9.92329 7.56248 9.68717 7.56248C9.45106 7.56248 9.25662 7.4861 9.10384 7.33332L7.35384 5.58332C7.27051 5.49998 7.21148 5.40971 7.17676 5.31248C7.14204 5.21526 7.12467 5.1111 7.12467 4.99998C7.12467 4.88887 7.14204 4.78471 7.17676 4.68748C7.21148 4.59026 7.27051 4.49998 7.35384 4.41665L9.10384 2.66665C9.25662 2.51387 9.45106 2.43748 9.68717 2.43748C9.92329 2.43748 10.1177 2.51387 10.2705 2.66665C10.4233 2.81943 10.4997 3.01387 10.4997 3.24998C10.4997 3.4861 10.4233 3.68054 10.2705 3.83332L9.93717 4.16665H9.99967C11.8608 4.16665 13.4372 4.81248 14.7288 6.10415C16.0205 7.39582 16.6663 8.97221 16.6663 10.8333C16.6663 12.3472 16.215 13.6944 15.3122 14.875C14.4094 16.0555 13.2427 16.8472 11.8122 17.25Z" fill="#999999"/>
</g>
</svg>
